<?xml version="1.0" encoding="UTF-8" standalone="no"?>
<!-- Created with Inkscape (http://www.inkscape.org/) -->

<svg
   width="737.8302"
   height="683.55554"
   viewBox="0 0 195.21755 180.85738"
   version="1.1"
   id="svg5"
   xml:space="preserve"
   xmlns:xlink="http://www.w3.org/1999/xlink"
   xmlns="http://www.w3.org/2000/svg"
   xmlns:svg="http://www.w3.org/2000/svg"><defs
     id="defs2"><linearGradient
       id="swatch10"><stop
         style="stop-color:#83c237;stop-opacity:1;"
         offset="0"
         id="stop10" /></linearGradient><linearGradient
       id="linearGradient1924"><stop
         style="stop-color:#83c237;stop-opacity:1;"
         offset="0"
         id="stop1920" /><stop
         style="stop-color:#679a2a;stop-opacity:1;"
         offset="1"
         id="stop1922" /></linearGradient><linearGradient
       id="linearGradient8529"><stop
         style="stop-color:#ffffff;stop-opacity:1;"
         offset="0.90312499"
         id="stop8525" /><stop
         style="stop-color:#e5e5e5;stop-opacity:1;"
         offset="1"
         id="stop8527" /></linearGradient><linearGradient
       id="linearGradient18823"><stop
         style="stop-color:#8cc24a;stop-opacity:1;"
         offset="0"
         id="stop18821" /></linearGradient><linearGradient
       id="linearGradient14733"><stop
         style="stop-color:#0aef2a;stop-opacity:1;"
         offset="0"
         id="stop14731" /></linearGradient><linearGradient
       id="linearGradient16355"><stop
         style="stop-color:#85c23e;stop-opacity:1;"
         offset="0"
         id="stop16353" /></linearGradient><clipPath
       clipPathUnits="userSpaceOnUse"
       id="clipPath7608"><rect
         style="fill:#666666;fill-opacity:0.436409;stroke:none;stroke-width:10.5201;stroke-linecap:round;stroke-linejoin:round;stroke-dasharray:none;stroke-opacity:1"
         id="rect7610"
         width="269.41592"
         height="150.20569"
         x="1.5173967"
         y="15.534399" /></clipPath><clipPath
       clipPathUnits="userSpaceOnUse"
       id="clipPath27372"><rect
         style="fill:#030303;fill-opacity:0.57478;stroke:none;stroke-width:6.45851;stroke-linecap:round;stroke-linejoin:round;stroke-dasharray:none;stroke-opacity:1"
         id="rect27374"
         width="224.86371"
         height="146.63794"
         x="-5.6444445"
         y="15.522223" /></clipPath><clipPath
       clipPathUnits="userSpaceOnUse"
       id="clipPath1293"><path
         style="fill:#000000;fill-opacity:0.0947369;stroke-width:5.872"
         d="m 57.385183,213.54815 164.159257,0.47037 V 57.855556 L 201.78889,43.274075 249.29629,4.7037038 280.8111,57.385185 292.1,288.33704 29.633331,282.69258 Z"
         id="path1295" /></clipPath><linearGradient
       xlink:href="#linearGradient1924"
       id="linearGradient1926"
       x1="245.06296"
       y1="186.26666"
       x2="245.06296"
       y2="245.53334"
       gradientUnits="userSpaceOnUse" /><clipPath
       clipPathUnits="userSpaceOnUse"
       id="clipPath7"><rect
         style="fill:#ffffff;fill-opacity:1;stroke:#83c237;stroke-width:4.7625;stroke-linecap:round;stroke-linejoin:round;stroke-dasharray:none;stroke-opacity:1;paint-order:normal"
         id="rect8"
         width="178.27034"
         height="44.449993"
         x="70.085175"
         y="103.0111" /></clipPath><clipPath
       clipPathUnits="userSpaceOnUse"
       id="clipPath10"><rect
         style="display:inline;fill:#ffffff;fill-opacity:1;stroke:#83c237;stroke-width:4.7625;stroke-linecap:round;stroke-linejoin:round;stroke-dasharray:none;stroke-opacity:1"
         id="rect10"
         width="187.20738"
         height="105.36295"
         x="28.457405"
         y="47.74258" /></clipPath></defs><g
     id="g236"
     style="display:none"
     transform="translate(-37.85788,-47.74258)"><path
       style="display:none;fill:#000000;fill-opacity:0.319298;stroke-width:5.872"
       d="M 53.127206,244.85741 225.64165,36.844885 270.93333,74.524305 V 270.93333 H 84.549074 Z"
       id="path543"
       clip-path="url(#clipPath1293)" /><rect
       style="display:none;fill:#0a1524;fill-opacity:0.431579;stroke:none;stroke-width:1.953;stroke-dasharray:none;stroke-opacity:1"
       id="rect6594"
       width="178.49239"
       height="178.49239"
       x="46.220467"
       y="46.220467" /><path
       style="display:none;fill:none;fill-opacity:0.436409;stroke:#74a03c;stroke-width:15.875;stroke-linecap:round;stroke-linejoin:round;stroke-dasharray:none;stroke-opacity:1"
       d="M 254.26266,32.279165 90.598281,75.406436 119.17701,181.69813 l 24.52883,-6.59513 -10.99188,-40.88141 32.70513,-8.7935 c 0,0 16.35256,-4.39675 9.75744,-28.925599 C 168.5814,71.973654 152.22885,76.370413 152.22885,76.370413 l -40.88141,10.991878"
       id="path650" /><path
       style="color:#000000;display:none;fill:#ffffff;fill-opacity:1;stroke:#8cc24a;stroke-width:7.93776;stroke-linecap:round;stroke-linejoin:round;stroke-dasharray:none;stroke-opacity:1"
       d="M 127.95531,71.431881 93.872791,171.35691 c -1.41872,4.14758 0.792895,8.66006 4.940159,10.07969 l 24.03209,8.22488 c 4.14679,1.41815 8.65829,-0.79249 10.0786,-4.93855 l 19.02037,-56.02401 24.53294,8.39719 c 0,0 6.60993,2.19423 14.05931,-0.22272 7.44938,-2.41694 15.58309,-9.58083 20.26683,-23.26536 4.68373,-13.684533 2.64483,-24.33068 -1.76127,-30.805337 -4.4061,-6.474657 -10.97396,-8.789511 -10.97396,-8.789511 L 20.824928,11.641706 3.2255801,14.007704 15.683768,26.660467 192.9267,89.031944 c 0,0 1.44263,0.427926 2.99072,2.702802 1.54808,2.274875 3.40826,6.385291 -0.1331,16.732134 -3.54136,10.34683 -7.53024,12.45729 -10.14759,13.30648 -2.61735,0.8492 -4.02025,0.3029 -4.02025,0.3029 l -32.04151,-10.96722 c -4.14758,-1.41872 -8.66006,0.79289 -10.07969,4.94016 l -19.01928,56.02239 -9.01332,-3.08372 30.44523,-92.780667 z"
       id="path7392"
       clip-path="url(#clipPath7608)" /><path
       style="color:#000000;display:none;fill:#ffffff;stroke:#83c237;stroke-width:6.61507;stroke-linecap:round;stroke-linejoin:round;stroke-dasharray:none;stroke-opacity:1"
       d="M 19.601562,24.121094 5.171875,32.798828 13.851563,47.228516 190.65234,91.226562 c 0,0 0.15624,-0.05909 1.0918,1.089844 0.93556,1.148933 2.95536,3.462175 0.52734,13.218754 -2.42801,9.75657 -5.29717,10.85325 -6.66211,11.42968 -1.36493,0.57644 -1.4746,0.45118 -1.4746,0.45118 l -32.86524,-8.17969 c -6.38083,-1.58767 -12.84077,2.29721 -14.42969,8.67773 L 122,177.55273 l -11.07227,-2.7539 20.85839,-83.868821 c 1.58837,-6.380942 -2.29679,-12.841345 -8.67774,-14.429687 -6.38154,-1.588258 -12.84223,2.297945 -14.42969,8.679687 L 84.945312,180.60156 c -1.587673,6.38084 2.297208,12.84077 8.677735,14.42969 l 34.179683,8.50586 c 6.38144,1.58755 12.84166,-2.29837 14.42969,-8.67969 l 14.83985,-59.63867 21.31054,5.30469 c 0,0 8.10563,1.91792 16.49024,-1.62305 8.38461,-3.54097 16.79993,-12.72362 20.50586,-27.61523 3.70591,-14.891617 0.57709,-26.948109 -5.16993,-34.005863 -5.74701,-7.057754 -13.80664,-9.160156 -13.80664,-9.160156 z"
       id="path1309"
       clip-path="url(#clipPath27372)"
       transform="matrix(0.68673895,0,0,0.68673895,41.175779,42.43642)" /></g><g
     id="layer1"
     style="display:none"
     transform="translate(-37.85788,-47.74258)"><path
       style="display:none;fill:#ffffff;fill-opacity:1;stroke:#83c237;stroke-width:4.7625;stroke-linecap:round;stroke-linejoin:round;stroke-dasharray:none;stroke-opacity:1"
       d="m 159.0957,58.910156 c -2.38199,0.477476 -4.46982,1.89754 -5.78906,3.9375 L 119.89453,114.55273 55.333984,76.892578 39.55641,78.36697 46.265625,92.441406 110.11523,129.6875 79.650391,176.83398 c -2.697562,4.17454 -1.500485,9.74545 2.673828,12.44336 4.174534,2.69756 9.745448,1.50049 12.443359,-2.67382 l 30.912112,-47.8379 18.68945,10.90235 7.67188,38.36328 c 0.84118,4.20752 4.53539,7.2363 8.82617,7.23633 h 20.46093 c 5.58253,-4.3e-4 9.8183,-5.03 8.86915,-10.53125 L 169.73633,66.203125 c -0.8623,-4.992393 -5.67336,-8.289841 -10.64063,-7.292969 z m -3.17773,33.0625 14.72265,85.294924 -6.51222,0.53239 -5.90586,-34.10185 c -0.50499,-2.52371 -3.17985,-5.70828 -5.40273,-7.00557 l -17.36083,-13.05974 z"
       id="path1" /><path
       style="display:none;fill:none;stroke:#000000;stroke-width:18;stroke-linecap:round;stroke-linejoin:round;stroke-dasharray:none"
       d="M 76.39087,191.36085 152.63516,57.385175 176.85923,191.44071 200.09487,175.37944 26.340736,78.551839"
       id="path2" /><rect
       style="display:none;fill:#ffffff;fill-opacity:1;stroke:#83c237;stroke-width:4.7625;stroke-linecap:round;stroke-linejoin:round;stroke-dasharray:none;stroke-opacity:1;paint-order:normal"
       id="rect9"
       width="177.79997"
       height="118.53331"
       x="59.266655"
       y="50.799988" /></g><g
     id="layer2"
     transform="translate(-37.85788,-47.74258)"><rect
       style="display:none;fill:url(#linearGradient1926);fill-opacity:1;stroke:none;stroke-width:2.5485;stroke-linecap:round;stroke-linejoin:round;stroke-dasharray:none;stroke-opacity:1"
       id="rect7624"
       width="270.93332"
       height="270.93332"
       x="-9.7699626e-15"
       y="-7.9936058e-15" /><rect
       style="display:inline;fill:#83c237;fill-opacity:1;stroke:none;stroke-width:4.37054;stroke-linecap:round;stroke-linejoin:round;stroke-dasharray:none;stroke-opacity:1;paint-order:normal"
       id="rect11"
       width="195.21754"
       height="180.85738"
       x="37.85788"
       y="47.74258" /><path
       style="display:inline;fill:#ffffff;fill-opacity:1;fill-rule:nonzero;stroke:none;stroke-width:0.524909;stroke-opacity:1"
       d="m 58.618979,182.70857 c 0,8.39857 0,16.79711 8.398556,16.79711 v 14.69749 c 0,4.19927 4.199267,6.29891 10.498188,6.29891 6.298923,0 10.498211,-2.09964 10.498211,-6.29891 0,-4.19929 -2.1e-5,-14.69749 -2.1e-5,-14.69749 h 92.384207 v 14.69749 c 0,4.19927 4.19927,6.29891 10.49819,6.29891 6.29892,0 10.49821,-2.09964 10.49821,-6.29891 v -14.69749 c 8.39856,0 8.39856,-8.39854 8.39856,-16.79711 V 81.925834 c 0,-31.494602 -8.39856,-31.494599 -75.58706,-31.494599 -67.188504,0 -75.587062,-3e-6 -75.587062,31.494595 M 184.59739,193.61055 c -8.39854,0 -12.59785,-6.29895 -12.59785,-12.59785 0,-6.29893 4.19931,-12.59784 12.59785,-12.59784 8.39854,0 12.59784,6.29891 12.59784,12.59784 0,6.2989 -4.19928,12.59785 -12.59784,12.59785 z m -100.782744,0 c -8.398567,-1e-5 -12.59785,-6.29895 -12.59785,-12.59785 0,-6.29891 4.199283,-12.59784 12.59785,-12.59784 8.398565,0 12.597848,6.29894 12.597848,12.59785 0,6.29894 -4.199283,12.59784 -12.597848,12.59784 z m -3.154128,-113.731842 109.845282,4e-6 a 3.8836151,3.8836151 45.00007 0 1 3.88361,3.883624 l -1.7e-4,71.078254 a 3.8836337,3.8836337 135.00007 0 1 -3.88363,3.88362 l -109.812702,0 a 3.88522,3.88522 44.988231 0 1 -3.885219,-3.88362 l -0.0292,-71.078258 a 3.8820291,3.8820291 134.98823 0 1 3.882029,-3.883624 z"
       id="path234" /><text
       xml:space="preserve"
       style="font-size:78.0991px;font-family:Carlito;-inkscape-font-specification:'Carlito, Normal';display:inline;fill:#ffffff;fill-opacity:1;stroke:none;stroke-width:3.63422;stroke-linecap:round;stroke-linejoin:round;stroke-dasharray:none;stroke-opacity:1"
       x="73.051308"
       y="215.74524"
       id="text25824"><tspan
         id="tspan25822"
         style="font-style:normal;font-variant:normal;font-weight:normal;font-stretch:normal;font-size:2.42267px;font-family:'Comic Sans MS';-inkscape-font-specification:'Comic Sans MS, Normal';font-variant-ligatures:normal;font-variant-caps:normal;font-variant-numeric:normal;font-variant-east-asian:normal;fill:#ffffff;fill-opacity:1;stroke-width:3.63422;stroke-dasharray:none"
         x="73.051308"
         y="215.74524">Bubulle</tspan></text><path
       style="display:inline;fill:#ffffff;fill-opacity:1;stroke:#83c237;stroke-width:4.7625;stroke-linecap:round;stroke-linejoin:round;stroke-dasharray:none;stroke-opacity:1"
       d="m 131.79883,66.273437 a 10.584409,10.584409 0 0 0 -5.62305,4.859375 L 75.375,164.26562 a 10.58335,10.58335 0 0 0 4.224609,14.35938 10.58335,10.58335 0 0 0 14.357422,-4.22461 L 135.35742,98.5 l 39.90039,74.89062 a 10.58335,10.58335 0 0 0 14.31641,4.36524 10.58335,10.58335 0 0 0 4.36328,-14.31836 L 144.80664,71.222656 a 10.584409,10.584409 0 0 0 -13.00781,-4.949219 z"
       id="path4"
       clip-path="url(#clipPath10)" /><path
       id="rect6"
       style="display:inline;fill:#ffffff;fill-opacity:1;stroke:#83c237;stroke-width:5.02671;stroke-linecap:round;stroke-linejoin:round;stroke-dasharray:none"
       d="M 67.875233,117.4188 H 218.85342 l 9.92032,9.81149 -9.92032,10.52681 H 67.875233 c 0,0 -6.366148,-2.93122 -6.195038,-9.81983 0.171109,-6.8886 6.195038,-10.51847 6.195038,-10.51847 z"
       clip-path="url(#clipPath7)"
       transform="matrix(0.9577599,0,0,0.99999999,9.6707567,0)" /></g></svg>
